<!-- brand-source-sha256: 0bc321ab52bb616652c990e90c8e99b74f31a200a5c42ebbf8e641cc7349500e -->
<svg xmlns="http://www.w3.org/2000/svg" width="1200" height="1200" viewBox="0 0 1200 1200" style="fill-rule:evenodd;clip-rule:evenodd;stroke-linejoin:round;stroke-miterlimit:2;">
    <g id="camada-arco" transform="matrix(1.022966,0,0,1.022966,17.932091,29.689307)">
        <path id="vara" d="M925,407.72L925,406.95L260,607.92L256.25,609.05L241.25,613.58L237.5,614.72L218.75,620.38L215,621.52L196.25,627.18L192.5,628.32L185,630.58L185,631.12L184,630.79L171.24,634.99L146.55,643.12L137.1,646.23L134.51,650.99L137.01,657.4L140.79,667.09C141.03,667.23 141.35,667.14 141.61,667.24L143.28,668.16C144.24,668.44 145.39,668.59 146.58,668.75C150.94,669.33 155.97,670 155.15,677.23L154.16,680.54C153.43,682.04 152.13,683.33 150.93,684.4L140.97,687.61L107.67,698.36L99.14,701.11C98.91,701.07 98.75,700.83 98.52,700.77C97.72,700.52 97.08,700.47 96.48,700.43C95.35,700.35 94.32,700.27 92.46,698.91L89.73,696.04C89.54,695.9 89.25,695.92 89.07,695.76L86.1,687.31L78.34,665.21L77.64,664.43L76.16,664.42C75.28,664.59 74.39,664.84 73.48,665.09C70.68,665.88 67.77,666.7 65.14,665.12C58.61,661.18 59.11,650.07 66.18,647.16L84,641.3L88,639.98L148.42,620.1L152,618.95L156,617.7L160,616.45L164,615.22L168,613.99L172,612.76L176,611.55L180,610.34L184,609.14L185,608.84L188.75,607.73L192.5,606.61L196.25,605.51L200,604.41L203.75,603.32L207.5,602.23L211.25,601.16L215,600.08L218.75,599.02L222.5,597.96L226.25,596.9L230,595.85L233.75,594.81L237.5,593.78L241.25,592.75L245,591.73L248.75,590.71L252.5,589.7L256.25,588.7L260,587.7L925,385.27L925,385.17L1066.54,338.77C1066.54,338.77 1089.62,332.25 1090.13,332.19C1093.21,331.8 1104.46,330.47 1104.46,330.47C1104.46,330.47 1115.28,330.8 1116.94,334.98C1118.39,338.61 1117.86,342.93 1117.38,346.74C1117.36,346.94 1117.33,347.14 1117.31,347.33C1116.15,356.77 1113.37,365.93 1110.46,374.95C1110.1,376.07 1109.52,377.38 1108.91,378.76C1107.58,381.75 1106.1,385.09 1106.3,387.76C1104.16,388.95 1103.39,391.98 1102.26,394.01C1099.83,398.38 1097.19,402.04 1093.41,405.34C1093.41,405.34 1087.91,410.49 1085.19,411.79C1078.31,415.06 1052.16,424.98 1052.16,424.98L1051.96,425.05C1047.55,426.51 1037.92,429.69 1033.73,429.12C1028.61,428.42 1027.78,422.44 1029.96,418.6C1031.9,415.2 1035.87,413.81 1037.76,410.36C1038.38,409.22 1039.22,405.4 1039.39,405.16C1039.55,404.93 1039.9,404.86 1040.04,404.62L1039.16,393.73L1038.72,388.31C1038.56,388.09 1038.23,388.07 1038.04,387.87C1036.99,386.73 1036.4,382.09 1032.04,379.56C1030.33,378.57 1029.27,378.54 1028.35,378.52C1027.83,378.51 1027.35,378.49 1026.82,378.31C1026.59,378.23 1026.44,377.96 1026.19,377.91L1019.5,379.88L997.93,386.23L927.44,407Z" style="fill:rgb(6,6,5);"/>
        <path id="crina" d="M185,635.28L185,634.25L995,399.34L995,399.81L1016.82,393.46L1031.68,389.08C1032,389 1032.35,388.9 1032.72,388.79L1032.77,388.78C1034.44,388.31 1036.45,387.75 1037.91,388.45C1039.95,389.42 1039.86,392.15 1040.1,394.03C1040.28,395.45 1040.45,396.5 1040.59,397.35C1041.09,400.45 1041.15,400.84 1039.53,406.17L1024.2,410.55L1013.09,413.48L995,418.82L995,418.36L185,654.74L185,655.86L177.04,658.2L150.19,666.08C148.52,667.16 147.05,668.35 145.65,669.73L144.63,669.64C142.82,669.15 142,667.69 140.56,666.98C140.33,666.86 140.02,666.93 139.8,666.78L138.37,663.15L134.57,653.52L136.31,651.07C138.73,649.41 147.24,647.55 150.54,646.54L182.04,636.75C183.18,636.41 184.09,635.83 185,635.28Z" style="fill:white;"/>
    </g>
</svg>
